<?xml version="1.0" standalone="no"?>
<!DOCTYPE svg PUBLIC "-//W3C//DTD SVG 20010904//EN"
 "http://www.w3.org/TR/2001/REC-SVG-20010904/DTD/svg10.dtd">
<svg version="1.0" xmlns="http://www.w3.org/2000/svg"
 width="1024.000000pt" height="1024.000000pt" viewBox="0 0 1024.000000 1024.000000"
 preserveAspectRatio="xMidYMid meet">

<g transform="translate(0.000000,1024.000000) scale(0.100000,-0.100000)"
fill="#000000" stroke="none">
<path d="M4985 7604 c-149 -16 -314 -39 -393 -55 -418 -85 -838 -323 -1195
-677 -334 -330 -551 -768 -647 -1302 -60 -334 -43 -689 50 -1036 72 -270 222
-574 406 -821 75 -100 301 -326 428 -428 350 -279 659 -411 1156 -496 179 -30
505 -33 680 -5 332 52 609 154 920 340 280 166 476 343 675 608 223 295 368
654 437 1080 30 183 32 578 5 741 -44 263 -111 476 -217 692 -121 248 -229
404 -409 589 -469 480 -1076 757 -1691 770 -91 2 -183 2 -205 0z m385 -274
c244 -31 461 -98 710 -221 247 -121 357 -199 549 -384 128 -124 202 -217 294
-370 306 -506 398 -952 316 -1518 -54 -372 -176 -665 -402 -966 -198 -263
-436 -456 -759 -616 -374 -185 -793 -261 -1168 -211 -557 75 -963 267 -1312
620 -240 242 -384 475 -501 806 -95 269 -122 423 -121 695 0 263 46 521 131
740 55 141 176 386 238 482 271 417 694 725 1185 862 290 80 601 110 840 81z"/>
<path d="M5050 6650 c-188 -29 -355 -194 -390 -388 -16 -92 0 -186 50 -286
l39 -80 -37 -45 c-20 -25 -118 -143 -217 -261 -99 -118 -216 -259 -259 -312
l-79 -97 -86 0 c-99 1 -151 -11 -235 -53 -224 -113 -309 -390 -195 -633 47
-101 186 -206 311 -235 173 -39 378 46 478 199 l15 23 670 5 670 6 15 -27 c23
-44 124 -132 184 -160 152 -72 285 -73 430 -2 111 54 199 161 238 289 30 102
23 228 -18 317 -85 180 -287 294 -489 275 l-71 -6 -300 358 -300 359 28 44
c119 188 96 423 -56 576 -103 103 -256 154 -396 134z m358 -1087 c170 -202
409 -487 430 -515 12 -15 10 -22 -12 -51 -32 -42 -73 -133 -81 -183 -14 -81
23 -74 -348 -70 -183 2 -457 4 -609 5 l-278 1 0 24 c0 43 -38 147 -75 208 -20
32 -34 64 -32 71 3 7 104 130 224 273 120 144 245 296 278 338 l60 76 50 -7
c84 -11 184 -4 232 16 1 1 73 -83 161 -186z"/>
</g>
</svg>
