<svg width="642" height="646" viewBox="0 0 642 646" fill="none" xmlns="http://www.w3.org/2000/svg">
<path d="M302.683 0.752831C282.817 2.88616 260.817 5.95283 250.283 8.08616C194.55 19.4195 138.55 51.1528 90.9499 98.3528C46.4166 142.353 17.4832 200.753 4.68324 271.953C-3.31676 316.486 -1.05009 363.82 11.3499 410.086C20.9499 446.086 40.9499 486.62 65.4832 519.553C75.4832 532.886 105.617 563.02 122.55 576.62C169.217 613.82 210.417 631.42 276.683 642.753C300.55 646.753 344.017 647.153 367.35 643.42C411.617 636.486 448.55 622.886 490.017 598.086C527.35 575.953 553.483 552.353 580.017 517.02C609.75 477.686 629.083 429.82 638.283 373.02C642.283 348.62 642.55 295.953 638.95 274.22C633.083 239.153 624.15 210.753 610.017 181.953C593.883 148.886 579.483 128.086 555.483 103.42C492.95 39.4195 412.017 2.48616 330.017 0.752831C317.883 0.486164 305.617 0.486164 302.683 0.752831ZM354.017 37.2862C386.55 41.4195 415.483 50.3528 448.683 66.7528C481.617 82.8862 496.283 93.2862 521.883 117.953C538.95 134.486 548.817 146.886 561.083 167.286C601.883 234.753 614.15 294.22 603.217 369.686C596.017 419.286 579.75 458.353 549.617 498.486C523.217 533.553 491.483 559.286 448.417 580.62C398.55 605.286 342.683 615.42 292.683 608.753C218.417 598.753 164.283 573.153 117.75 526.086C85.7499 493.82 66.5499 462.753 50.9499 418.62C38.2832 382.753 34.6832 362.22 34.8166 325.953C34.8166 290.886 40.9499 256.486 52.2832 227.286C59.6166 208.486 75.7499 175.82 84.0166 163.02C120.15 107.42 176.55 66.3528 242.017 48.0862C280.683 37.4195 322.15 33.4195 354.017 37.2862Z" fill="black"/>
<path d="M311.35 127.953C286.283 131.819 264.017 153.819 259.35 179.686C257.217 191.953 259.35 204.486 266.017 217.819L271.217 228.486L266.283 234.486C263.617 237.819 250.55 253.553 237.35 269.286C224.15 285.019 208.55 303.819 202.817 310.886L192.283 323.82H180.817C167.617 323.686 160.683 325.286 149.483 330.886C119.617 345.953 108.283 382.886 123.483 415.286C129.75 428.753 148.283 442.753 164.95 446.62C188.017 451.82 215.35 440.486 228.683 420.086L230.683 417.02L320.017 416.353L409.35 415.553L411.35 419.153C414.417 425.02 427.883 436.753 435.883 440.486C456.15 450.086 473.883 450.22 493.217 440.753C508.017 433.553 519.75 419.286 524.95 402.22C528.95 388.62 528.017 371.82 522.55 359.953C511.217 335.953 484.283 320.753 457.35 323.286L447.883 324.086L407.883 276.353L367.883 228.486L371.617 222.619C387.483 197.553 384.417 166.219 364.15 145.819C350.417 132.086 330.017 125.286 311.35 127.953ZM359.083 272.886C381.75 299.819 413.617 337.82 416.417 341.553C418.017 343.553 417.75 344.486 414.817 348.353C410.55 353.953 405.083 366.086 404.017 372.753C402.15 383.553 407.083 382.62 357.617 382.086C333.217 381.82 296.683 381.553 276.417 381.42L239.35 381.286V378.086C239.35 372.353 234.283 358.486 229.35 350.353C226.683 346.086 224.817 341.82 225.083 340.886C225.483 339.953 238.95 323.553 254.95 304.486C270.95 285.286 287.617 265.019 292.017 259.419L300.017 249.286L306.683 250.219C317.883 251.686 331.217 250.753 337.617 248.086C337.75 247.953 347.35 259.153 359.083 272.886Z" fill="black"/>
</svg>
